<svg width="69" height="69" viewBox="0 0 69 69" fill="none" xmlns="http://www.w3.org/2000/svg">
<path d="M25.5235 44.1909C26.1315 44.6202 26.8579 44.8498 27.6021 44.848C28.3463 44.8461 29.0715 44.6129 29.6773 44.1806C30.2914 43.7321 30.7572 43.1111 31.0125 42.3935L32.5546 37.6566C32.9504 36.4693 33.6167 35.3903 34.5011 34.5048C35.3854 33.6192 36.4635 32.9514 37.6503 32.5541L42.4492 31.0016C43.1587 30.7447 43.7698 30.2717 44.1962 29.6491C44.6227 29.0266 44.843 28.286 44.8263 27.5316C44.8095 26.7772 44.5564 26.047 44.1028 25.4441C43.6491 24.8411 43.0177 24.3957 42.2974 24.1706L37.5537 22.625C36.3658 22.2297 35.286 21.5635 34.3999 20.6792C33.5137 19.7948 32.8454 18.7164 32.4477 17.5293L30.8883 12.7407C30.6372 12.0352 30.1724 11.4256 29.5587 10.9965C28.945 10.5675 28.2128 10.3404 27.464 10.3468C26.7152 10.3533 25.987 10.5929 25.3807 11.0325C24.7745 11.4721 24.3203 12.0897 24.0814 12.7994L22.5048 17.6294C22.109 18.7847 21.4563 19.8351 20.5957 20.7016C19.7352 21.5681 18.6893 22.2281 17.5368 22.6319L12.7413 24.174C12.0361 24.4257 11.4267 24.8906 10.9978 25.5043C10.5689 26.118 10.3417 26.8501 10.3478 27.5988C10.3538 28.3475 10.5929 29.0758 11.0317 29.6825C11.4705 30.2891 12.0873 30.7442 12.7965 30.9843L17.5368 32.5196C18.7307 32.9158 19.815 33.5867 20.7024 34.4783C21.5899 35.3699 22.2557 36.4574 22.6462 37.6532L24.2056 42.4521C24.454 43.1559 24.9163 43.7631 25.5235 44.1909ZM25.8168 18.6092L27.6349 13.8585L29.1529 18.6092C29.7171 20.3103 30.6714 21.8558 31.9396 23.1222C33.2078 24.3886 34.7547 25.3407 36.4566 25.9025L41.3073 27.731L36.5394 29.2731C34.8389 29.8392 33.294 30.7942 32.0273 32.062C30.7606 33.3299 29.8071 34.8758 29.2426 36.5768L27.4383 41.3309L25.8892 36.5733C25.3326 34.873 24.3876 33.3256 23.1292 32.0538C21.855 30.7855 20.3064 29.827 18.6028 29.2524L13.8487 27.4515L18.6304 25.899C20.3093 25.3175 21.832 24.3578 23.0809 23.0942C24.3202 21.8252 25.2556 20.2918 25.8168 18.6092ZM46.6962 58.1358C47.0491 58.3839 47.4549 58.5465 47.8815 58.6107C48.308 58.675 48.7437 58.6391 49.154 58.5059C49.5643 58.3727 49.938 58.1458 50.2456 57.8433C50.5531 57.5407 50.786 57.1708 50.9259 56.7627L51.7815 54.1338C51.9668 53.5891 52.2735 53.0936 52.6785 52.6848C53.0856 52.2708 53.5824 51.9672 54.1275 51.7878L56.7909 50.9184C57.3405 50.7287 57.8161 50.3703 58.15 49.8943C58.4839 49.4183 58.6589 48.849 58.6501 48.2677C58.6413 47.6863 58.4491 47.1226 58.101 46.6569C57.7529 46.1913 57.2666 45.8474 56.7115 45.6744L54.0757 44.8119C53.5308 44.6294 53.0354 44.3232 52.6285 43.9174C52.2215 43.5117 51.9139 43.0172 51.7297 42.4728L50.8603 39.806C50.6736 39.2575 50.3191 38.7816 49.8469 38.4459C49.3746 38.1101 48.8087 37.9315 48.2293 37.9353C47.6499 37.9391 47.0864 38.1252 46.6187 38.4671C46.151 38.8091 45.8027 39.2896 45.6232 39.8405L44.7711 42.4694C44.595 43.0102 44.2963 43.503 43.8983 43.9094C43.5003 44.3157 43.0139 44.6246 42.4768 44.8119L39.81 45.6813C39.2612 45.8673 38.7849 46.2212 38.4486 46.693C38.1122 47.1648 37.9329 47.7304 37.9359 48.3098C37.939 48.8892 38.1243 49.4529 38.4656 49.9211C38.8069 50.3893 39.2869 50.7382 39.8376 50.9184L42.4699 51.7706C43.0219 51.9569 43.5187 52.2639 43.9258 52.671C44.3364 53.0816 44.64 53.5784 44.8159 54.1269L45.6888 56.7972C45.8778 57.337 46.2298 57.8048 46.6962 58.1358ZM43.5463 48.5L42.9288 48.2999L43.5636 48.0791C44.6073 47.7123 45.5536 47.1125 46.3308 46.3252C47.1079 45.5379 47.6954 44.5838 48.0486 43.5354L48.2487 42.9213L48.4557 43.5458C48.8079 44.6031 49.4016 45.5639 50.1897 46.352C50.9777 47.1401 51.9385 47.7337 52.9959 48.086L53.6686 48.3033L53.0476 48.5103C51.9881 48.8635 51.0257 49.4591 50.2369 50.2497C49.4481 51.0402 48.8547 52.004 48.504 53.0643L48.3004 53.6888L48.1003 53.0678C47.7499 52.0045 47.1556 51.0379 46.3648 50.2453C45.5741 49.4528 44.6088 48.8562 43.5463 48.5034" fill="#387F1A"/>
</svg>
