<svg width="58" height="58" viewBox="0 0 58 58" fill="none" xmlns="http://www.w3.org/2000/svg">
<path d="M24.1667 22.3659C18.3812 19.2315 12.2767 13.8109 7.25 4.83301M28.072 10.6789C23.1517 7.45267 17.1511 8.80117 14.6667 13.6925C12.1824 18.5838 14.1568 25.1644 19.0747 28.3931C23.5262 31.3148 33.2702 34.3357 41.0833 25.9668C33.7608 22.8493 32.9875 13.9076 28.072 10.6789Z" stroke="#387F1A" stroke-width="3" stroke-linecap="round" stroke-linejoin="round"/>
<path d="M9.66667 26.583C8.12 27.7188 7.25 29.0118 7.25 30.382C7.25 34.9568 16.9892 38.6663 29 38.6663C41.0108 38.6663 50.75 34.9568 50.75 30.382C50.75 29.0118 49.88 27.7213 48.3333 26.583" stroke="#387F1A" stroke-width="3" stroke-linecap="round"/>
<path d="M50.75 31.416C50.75 40.0604 44.6938 47.6439 38.1713 51.9142C36.83 52.7939 35.235 53.166 33.6328 53.166H24.3673C22.765 53.166 21.17 52.7939 19.8288 51.9142C13.3062 47.6439 7.25 40.0604 7.25 31.416" stroke="#387F1A" stroke-width="3" stroke-linecap="round"/>
</svg>
