<svg width="54" height="54" viewBox="0 0 54 54" fill="none" xmlns="http://www.w3.org/2000/svg">
<path d="M19.8106 10.1475L30.1133 16.0965V27.9922L19.8106 33.939L9.50781 27.9922V16.0965L19.8106 10.1475Z" stroke="#387F1A" stroke-width="3" stroke-linejoin="round"/>
<path d="M30.1387 27.8701L40.4392 33.8169V45.7126L30.1387 51.6616L19.8359 45.7126V33.8169L30.1387 27.8701Z" stroke="#387F1A" stroke-width="3" stroke-linejoin="round"/>
<path d="M40.4646 10.1475L50.7696 16.0965V27.9922L40.4646 33.939L30.1641 27.9922V16.0965L40.4646 10.1475Z" stroke="#387F1A" stroke-width="3" stroke-linejoin="round"/>
<path d="M40.3884 10.2079V1.86035M44.9492 24.6484V18.8929M31.2264 45.3776L25.9119 41.9689M20.1789 26.9591L24.5822 24.4706M19.8639 45.9536L9.94594 52.1411M9.65344 16.1996L1.99219 12.2666M40.8789 45.8546L49.5212 51.4526" stroke="#387F1A" stroke-width="3" stroke-linecap="round" stroke-linejoin="round"/>
</svg>
