<svg width="63" height="63" viewBox="0 0 63 63" fill="none" xmlns="http://www.w3.org/2000/svg">
<path d="M10.5 36.9333C13.1644 36.9333 16.8814 36.1406 19.215 37.8521L23.8402 41.2383C25.5596 42.4983 27.4208 42.0836 29.3396 41.7843C31.8649 41.388 34.125 43.5431 34.125 46.3466C34.125 47.1131 28.6834 49.0635 27.8985 49.4336C27.1428 49.7909 26.3039 49.9353 25.4722 49.8511C24.6405 49.7669 23.8475 49.4574 23.1787 48.9558L17.9603 45.1312" stroke="#387F1A" stroke-width="3" stroke-linecap="round" stroke-linejoin="round"/>
<path d="M34.125 44.625L44.8639 39.6637C45.811 39.3365 46.8324 39.29 47.8053 39.5299C48.7782 39.7697 49.661 40.2857 50.3475 41.0156L52.1063 42.8558C52.7363 43.512 52.5893 44.6198 51.8096 45.0713L31.1929 57.0439C30.5838 57.4008 29.9078 57.6286 29.2069 57.713C28.5061 57.7975 27.7953 57.7368 27.1189 57.5347L10.5 52.5709M31.5053 31.5C31.5053 31.5 37.0178 25.6226 37.0178 18.375C37.0178 11.1274 31.5053 5.25 31.5053 5.25C31.5053 5.25 25.9928 11.1274 25.9928 18.375C25.9928 25.6226 31.5053 31.5 31.5053 31.5ZM20.1915 14.2564C16.464 12.8231 13.1302 12.7496 13.1302 12.7496C13.1302 12.7496 13.3061 20.9659 18.3803 26.145C23.4544 31.3215 31.5053 31.5 31.5053 31.5C31.5053 31.5 39.5561 31.3215 44.6303 26.145C49.7044 20.9659 49.8803 12.7496 49.8803 12.7496C49.8803 12.7496 46.5465 12.8231 42.819 14.2564" stroke="#387F1A" stroke-width="3" stroke-linecap="round" stroke-linejoin="round"/>
</svg>
