<svg width="58" height="58" viewBox="0 0 58 58" fill="none" xmlns="http://www.w3.org/2000/svg">
<path d="M14.5 8.45801C14.5 7.33184 14.5 6.76876 14.6837 6.32409C14.9295 5.73312 15.3997 5.26379 15.9911 5.01909C16.4358 4.83301 16.9988 4.83301 18.125 4.83301H39.875C41.0012 4.83301 41.5642 4.83301 42.0089 5.01667C42.5999 5.26247 43.0692 5.73267 43.3139 6.32409C43.5 6.76876 43.5 7.33184 43.5 8.45801C43.5 9.58417 43.5 10.1473 43.3163 10.5919C43.0705 11.1829 42.6003 11.6522 42.0089 11.8969C41.5642 12.083 41.0012 12.083 39.875 12.083H18.125C16.9988 12.083 16.4358 12.083 15.9911 11.8993C15.4001 11.6535 14.9308 11.1833 14.6861 10.5919C14.5 10.1473 14.5 9.58417 14.5 8.45801Z" stroke="#387F1A" stroke-width="3"/>
<path d="M10.8724 43.4997H47.1224M10.8724 24.1663H47.1224M28.9974 28.9997V38.6663M24.1641 33.833H33.8307M13.2915 18.8473L19.0987 14.2024C20.411 13.1536 21.0659 12.6268 21.8441 12.3561C22.6174 12.083 23.4584 12.083 25.138 12.083H32.968C34.6596 12.083 35.5079 12.083 36.2909 12.3609C37.0739 12.6364 37.7336 13.1705 39.0507 14.2363L44.7468 18.8473C45.8668 19.754 46.7699 20.8998 47.39 22.2006C48.0101 23.5014 48.3315 24.9244 48.3307 26.3655V42.4508C48.331 44.693 47.5519 46.8655 46.1267 48.5964L45.2591 49.6477C44.3522 50.7482 43.213 51.6343 41.9232 52.2427C40.6334 52.851 39.225 53.1664 37.7989 53.1663H21.6435C20.2636 53.1663 19.5724 53.1663 18.9199 53.0769C16.9787 52.811 15.1642 51.9615 13.7168 50.6409C13.2311 50.1963 12.7888 49.6646 11.9043 48.6061C10.4566 46.8686 9.66384 44.6786 9.66406 42.417V26.3945C9.66453 24.9454 9.99078 23.515 10.6187 22.209C11.2466 20.9031 12.16 19.755 13.2915 18.8497V18.8473Z" stroke="#387F1A" stroke-width="3" stroke-linecap="round"/>
</svg>
