<svg width="23" height="23" viewBox="0 0 23 23" fill="none" xmlns="http://www.w3.org/2000/svg">
<g clip-path="url(#clip0_109_208)">
<path d="M20.8438 0.539146H2.15625C1.73224 0.53483 1.32384 0.698896 1.02066 0.995341C0.717476 1.29179 0.544275 1.6964 0.539062 2.1204V20.8834C0.545218 21.3067 0.718833 21.7104 1.02191 22.0061C1.32499 22.3018 1.73286 22.4653 2.15625 22.461H20.8438C21.2678 22.4644 21.6759 22.2998 21.9789 22.0031C22.282 21.7065 22.4553 21.302 22.4609 20.878V2.115C22.4534 1.69225 22.2793 1.28957 21.9764 0.994484C21.6736 0.699399 21.2666 0.535764 20.8438 0.539146Z" fill="#0076B2"/>
<path d="M3.78414 8.75635H7.03828V19.2267H3.78414V8.75635ZM5.41211 3.54541C5.78534 3.54541 6.15019 3.65611 6.4605 3.8635C6.77081 4.0709 7.01263 4.36567 7.15538 4.71053C7.29813 5.05539 7.33539 5.43483 7.26244 5.80087C7.1895 6.16691 7.00963 6.50309 6.74558 6.76688C6.48154 7.03067 6.14519 7.21022 5.77909 7.28281C5.41298 7.35541 5.03357 7.31779 4.68885 7.17471C4.34413 7.03164 4.04959 6.78953 3.84249 6.47903C3.63539 6.16852 3.52504 5.80357 3.52539 5.43033C3.52587 4.93025 3.72486 4.45082 4.07863 4.09738C4.43241 3.74394 4.91203 3.54541 5.41211 3.54541ZM9.07953 8.75635H12.1989V10.1938H12.242C12.6769 9.37088 13.737 8.50299 15.3201 8.50299C18.6155 8.4958 19.2265 10.6646 19.2265 13.4767V19.2267H15.9723V14.1326C15.9723 12.9197 15.9508 11.3582 14.2815 11.3582C12.6122 11.3582 12.3283 12.6807 12.3283 14.0535V19.2267H9.07953V8.75635Z" fill="white"/>
</g>
<defs>
<clipPath id="clip0_109_208">
<rect width="23" height="23" fill="white"/>
</clipPath>
</defs>
</svg>
