<svg width="64" height="64" viewBox="0 0 64 64" fill="none" xmlns="http://www.w3.org/2000/svg">
<path d="M10 39.3995C12.8547 39.3995 16.8373 38.5388 19.3376 40.397L24.2933 44.0735C26.1355 45.4415 28.1296 44.9912 30.1855 44.6663C32.8912 44.2359 35.3128 46.5758 35.3128 49.6196C35.3128 50.4518 29.4824 52.5693 28.6414 52.9712C27.8317 53.3592 26.9329 53.5159 26.0418 53.4245C25.1507 53.3331 24.3011 52.997 23.5845 52.4525L17.9932 48.3" stroke="#387F1A" stroke-width="2" stroke-linecap="round" stroke-linejoin="round"/>
<path d="M35.3128 47.75L46.8188 42.3635C47.8336 42.0082 48.928 41.9577 49.9704 42.2182C51.0128 42.4786 51.9587 43.0387 52.6942 43.8313L54.5786 45.8291C55.2536 46.5416 55.0961 47.7443 54.2608 48.2345L32.1712 61.2334C31.5186 61.6209 30.7943 61.8682 30.0433 61.9599C29.2924 62.0516 28.5309 61.9857 27.8061 61.7663L10 56.377M32.5059 33.5C32.5059 33.5 38.4122 27.1189 38.4122 19.25C38.4122 11.3812 32.5059 5 32.5059 5C32.5059 5 26.5995 11.3812 26.5995 19.25C26.5995 27.1189 32.5059 33.5 32.5059 33.5ZM20.3839 14.7784C16.3901 13.2223 12.8182 13.1425 12.8182 13.1425C12.8182 13.1425 13.0066 22.063 18.4432 27.686C23.8798 33.3062 32.5059 33.5 32.5059 33.5C32.5059 33.5 41.1319 33.3062 46.5685 27.686C52.0051 22.063 52.1936 13.1425 52.1936 13.1425C52.1936 13.1425 48.6217 13.2223 44.6279 14.7784" stroke="#387F1A" stroke-width="2" stroke-linecap="round" stroke-linejoin="round"/>
</svg>
