<svg width="52" height="52" viewBox="0 0 52 52" fill="none" xmlns="http://www.w3.org/2000/svg">
<path d="M14.778 50.3263H33.3339C45.0404 50.3263 50.3753 41.7317 50.3753 33.7513C50.2868 31.8791 49.8174 30.0446 48.9956 28.3601C48.1739 26.6755 47.0171 25.1763 45.5961 23.9542C42.6732 21.1691 38.8149 19.5769 34.7785 19.4903C32.0825 19.6388 29.4668 20.4615 27.1712 21.883C24.8755 23.3046 22.9733 25.2794 21.6388 27.6267C20.7288 25.8148 19.4125 23.1872 18.3628 21.0747H21.8045C22.8232 21.0107 23.7908 20.6061 24.5518 19.9259C25.3128 19.2457 25.8229 18.3293 26.0003 17.3242C26.6371 16.791 27.1439 16.1195 27.4821 15.3609C27.8203 14.6023 27.981 13.7765 27.9519 12.9464C27.9519 6.99566 21.2943 4.00891 17.5941 4.00891C12.5404 3.89028 11.0746 7.55953 9.76164 10.842L9.70476 10.9883C8.88739 13.0878 1.72276 31.694 1.72276 37.3442C1.70882 40.7955 3.05102 44.1142 5.46026 46.5855C6.67927 47.8071 8.13375 48.7683 9.73547 49.4108C11.3372 50.0533 13.0527 50.3636 14.778 50.323M12.7321 12.1827C14.1508 8.63203 14.9373 7.26053 17.4544 7.26053H17.5649C19.9878 7.26053 24.7003 9.26741 24.7003 12.948C24.7441 13.3185 24.6873 13.6923 24.5345 14.0335V14.0352L24.4159 13.8905C24.2326 13.6768 24.0223 13.4878 23.7903 13.3283C23.5467 13.1572 23.2589 13.0601 22.9615 13.0488H22.0986C21.2569 11.9877 18.6699 10.1043 16.6565 10.4585L18.7641 13.1382H21.7753L22.2108 14.1765C22.7503 15.4603 22.5634 16.0989 22.3895 16.3784C22.3163 16.4955 22.2174 16.5944 22.1002 16.6676C21.9831 16.7408 21.8509 16.7864 21.7135 16.8009H11.5053L12.5095 18.109C12.9499 18.6827 13.5349 19.1295 14.1085 19.4692C14.1118 19.7135 14.1701 19.9541 14.2791 20.1728L14.7293 21.0747V21.0779C15.6831 22.9873 17.8899 27.4105 19.0778 29.77C19.0366 29.8285 18.9971 29.8881 18.9591 29.9488L14.258 37.5879C14.0322 37.9551 13.9615 38.397 14.0614 38.8163C14.1614 39.2356 14.4238 39.5981 14.791 39.8239C15.1582 40.0497 15.6001 40.1205 16.0194 40.0205C16.4387 39.9205 16.8012 39.6581 17.027 39.2909L21.252 32.422C21.3972 32.4567 21.5451 32.4751 21.6956 32.4773C21.8603 32.4708 22.0217 32.4453 22.1799 32.4009L26.543 39.5883C26.7667 39.9568 27.1276 40.2213 27.5463 40.3237C27.965 40.4261 28.4073 40.358 28.7758 40.1343C29.1442 39.9106 29.4088 39.5497 29.5112 39.131C29.6136 38.7123 29.5454 38.27 29.3218 37.9015L24.5053 29.9667C24.4362 29.8532 24.3602 29.7442 24.2778 29.64C25.2847 27.6824 26.7805 26.0183 28.6201 24.8091C30.4596 23.5999 32.5805 22.8867 34.7769 22.7387C37.9944 22.8215 41.0656 24.1037 43.3894 26.3332C44.474 27.2591 45.3631 28.3922 46.0046 29.6659C46.646 30.9396 47.027 32.3285 47.1253 33.7513C47.1236 40.3845 42.858 47.0763 33.3339 47.0763H14.778C13.4849 47.112 12.1979 46.8857 10.9945 46.411C9.79113 45.9362 8.69629 45.2228 7.77589 44.3138C5.96752 42.4584 4.96178 39.9659 4.97601 37.375C4.97601 33.085 10.579 17.7223 12.7321 12.1827Z" fill="#387F1A"/>
</svg>
