<svg width="67" height="67" viewBox="0 0 67 67" fill="none" xmlns="http://www.w3.org/2000/svg">
<path fill-rule="evenodd" clip-rule="evenodd" d="M33.5 5.58325C33.8702 5.58325 34.2253 5.73031 34.487 5.99208C34.7488 6.25385 34.8959 6.60889 34.8959 6.97909V11.8017C34.8959 12.2763 34.8149 12.7495 34.6544 13.1961C34.4939 13.6428 34.2538 14.0615 33.9411 14.4217C33.6273 14.7849 33.2419 15.0795 32.8091 15.2871C32.3718 15.4989 31.8922 15.6086 31.4063 15.6081H28.2517C26.5334 15.5732 24.8277 16.2698 23.471 17.6265C22.1114 18.986 21.2055 20.9095 20.9724 23.0423C20.8747 24.2106 20.9892 25.3873 21.3074 26.4956C21.6108 27.5746 22.1209 28.5843 22.8093 29.4688C23.4411 30.2845 24.2427 30.9532 25.1585 31.4285C25.474 31.5904 26.1803 31.7733 27.0904 31.9101C27.9558 32.0413 28.8142 32.1041 29.3139 32.1041C29.6841 32.1041 30.0392 32.2511 30.3009 32.5129C30.5627 32.7747 30.7098 33.1297 30.7098 33.4999C30.7098 33.8701 30.5627 34.2252 30.3009 34.4869C30.0392 34.7487 29.6841 34.8958 29.3139 34.8958C28.6453 34.8958 27.6445 34.8176 26.673 34.671C25.7476 34.5314 24.6435 34.2997 23.8897 33.9159C22.6144 33.2564 21.4975 32.3277 20.6165 31.194C19.7044 30.0256 19.0279 28.6911 18.6246 27.2647C18.2094 25.8118 18.0628 24.2953 18.1919 22.7897L18.1961 22.7604C18.4892 20.0385 19.6478 17.5023 21.4959 15.6528C23.3467 13.8033 25.7643 12.7704 28.2936 12.8165H31.4063C31.4686 12.8174 31.5356 12.8016 31.6073 12.769C31.6943 12.7258 31.7713 12.665 31.8334 12.5903C31.9175 12.4896 31.9832 12.3747 32.0274 12.2511C32.0775 12.1065 32.1034 11.9547 32.1042 11.8017V6.97909C32.1042 6.60889 32.2513 6.25385 32.513 5.99208C32.7748 5.73031 33.1298 5.58325 33.5 5.58325Z" fill="#387F1A"/>
<path fill-rule="evenodd" clip-rule="evenodd" d="M19.7011 33.084C20.9474 32.443 22.3281 32.1071 23.7295 32.1041C24.0997 32.1041 24.4548 32.2511 24.7165 32.5129C24.9783 32.7747 25.1254 33.1297 25.1254 33.4999C25.1254 33.8701 24.9783 34.2252 24.7165 34.4869C24.4548 34.7487 24.0997 34.8958 23.7295 34.8958C22.7873 34.8958 21.8479 35.1233 20.9714 35.5713C20.055 36.0464 19.253 36.7152 18.6208 37.5311C17.9323 38.4155 17.4222 39.4253 17.1189 40.5042C16.7992 41.6251 16.6857 42.7947 16.7839 43.9561C17.017 46.0903 17.9229 48.0138 19.2824 49.3719C19.8533 49.9442 20.8723 50.476 22.1076 50.8585C23.3219 51.234 24.5684 51.4099 25.4576 51.3917H31.4066C31.8951 51.3917 32.3725 51.5034 32.8094 51.7128C33.2449 51.9193 33.6274 52.218 33.94 52.5782C34.2541 52.9397 34.4942 53.357 34.6547 53.8037C34.8152 54.2504 34.8962 54.725 34.8962 55.1995V60.0208C34.8962 60.391 34.7491 60.746 34.4874 61.0078C34.2256 61.2695 33.8706 61.4166 33.5004 61.4166C33.1302 61.4166 32.7751 61.2695 32.5134 61.0078C32.2516 60.746 32.1045 60.391 32.1045 60.0208V55.1981C32.1037 55.0451 32.0778 54.8933 32.0278 54.7487C31.9831 54.625 31.9169 54.5102 31.8323 54.4095C31.7706 54.335 31.6941 54.2742 31.6076 54.2308C31.5456 54.1985 31.4765 54.1822 31.4066 54.1834H25.4994C24.2655 54.2057 22.7259 53.9712 21.284 53.5259C19.8561 53.0849 18.3416 52.3814 17.3073 51.347C15.4592 49.4976 14.2993 46.9613 14.0075 44.2395L14.0048 44.2101C13.8752 42.7047 14.0213 41.1881 14.4361 39.7351C14.8392 38.3082 15.5156 36.9733 16.4279 35.8044C17.3091 34.6713 18.4259 33.743 19.7011 33.084ZM43.2754 5.58325C43.6456 5.58325 44.0006 5.73031 44.2624 5.99208C44.5241 6.25385 44.6712 6.60889 44.6712 6.97909V14.2123C44.6712 15.636 44.4283 17.0514 43.951 18.3761C43.4873 19.6854 42.7834 20.8968 41.8754 21.948C41.6306 22.229 41.3561 22.5142 41.0518 22.8036C43.3689 22.9376 45.8702 23.3438 47.9891 24.4396C49.4282 25.1835 50.7152 26.2583 51.6322 27.7868C52.5479 29.3124 53.042 31.2024 53.042 33.4999C53.042 35.7891 52.5633 37.6763 51.6713 39.2005C50.778 40.7289 49.5217 41.8065 48.105 42.5547C45.9596 43.6895 43.4108 44.0873 41.0644 44.2088C41.3491 44.4805 41.6181 44.7624 41.8712 45.0546C43.6774 47.1344 44.6656 49.9191 44.6656 52.7875V60.0208C44.6656 60.391 44.5186 60.746 44.2568 61.0078C43.995 61.2695 43.64 61.4166 43.2698 61.4166C42.8996 61.4166 42.5446 61.2695 42.2828 61.0078C42.021 60.746 41.874 60.391 41.874 60.0208V52.7875C41.874 50.543 41.0979 48.4214 39.7635 46.886C38.3537 45.2598 36.5754 44.2576 34.8962 44.2562C34.526 44.2562 34.171 44.1091 33.9092 43.8474C33.6474 43.5856 33.5004 43.2306 33.5004 42.8604C33.5004 42.4902 33.6474 42.1351 33.9092 41.8734C34.171 41.6116 34.526 41.4645 34.8962 41.4645H39.0795C41.8405 41.4645 44.681 41.2077 46.7999 40.0869C47.83 39.5425 48.6703 38.8027 49.2621 37.7907C49.8553 36.7745 50.2504 35.3969 50.2504 33.4999C50.2504 31.61 49.8456 30.2365 49.2384 29.2217C48.6312 28.2111 47.7672 27.4671 46.7063 26.9186C44.5246 25.7907 41.6157 25.5367 38.8255 25.5367H34.6421C34.272 25.5367 33.9169 25.3896 33.6551 25.1279C33.3934 24.8661 33.2463 24.5111 33.2463 24.1409C33.2463 23.7707 33.3934 23.4156 33.6551 23.1539C33.9169 22.8921 34.272 22.745 34.6421 22.745H34.6463C35.5477 22.7429 36.437 22.5377 37.2482 22.1448C38.0424 21.7679 39.0739 20.9165 39.7676 20.1167C40.4471 19.3245 40.9751 18.4142 41.3254 17.4311C41.6947 16.3982 41.8822 15.3092 41.8795 14.2123V6.97909C41.8795 6.60889 42.0266 6.25385 42.2884 5.99208C42.5501 5.73031 42.9052 5.58325 43.2754 5.58325Z" fill="#387F1A"/>
<path fill-rule="evenodd" clip-rule="evenodd" d="M22.334 33.4999C22.334 33.1297 22.481 32.7747 22.7428 32.5129C23.0046 32.2512 23.3596 32.1041 23.7298 32.1041H41.8757C42.2458 32.1041 42.6009 32.2512 42.8627 32.5129C43.1244 32.7747 43.2715 33.1297 43.2715 33.4999C43.2715 33.8701 43.1244 34.2252 42.8627 34.4869C42.6009 34.7487 42.2458 34.8958 41.8757 34.8958H23.7298C23.3596 34.8958 23.0046 34.7487 22.7428 34.4869C22.481 34.2252 22.334 33.8701 22.334 33.4999ZM30.709 24.1395C30.709 23.7693 30.856 23.4143 31.1178 23.1525C31.3796 22.8907 31.7346 22.7437 32.1048 22.7437H34.8965C35.2667 22.7437 35.6217 22.8907 35.8835 23.1525C36.1453 23.4143 36.2923 23.7693 36.2923 24.1395C36.2923 24.5097 36.1453 24.8647 35.8835 25.1265C35.6217 25.3883 35.2667 25.5353 34.8965 25.5353H32.1048C31.7346 25.5353 31.3796 25.3883 31.1178 25.1265C30.856 24.8647 30.709 24.5097 30.709 24.1395ZM23.7298 42.8604C23.7298 42.4902 23.8769 42.1352 24.1386 41.8734C24.4004 41.6116 24.7555 41.4646 25.1257 41.4646H34.8965C35.2667 41.4646 35.6217 41.6116 35.8835 41.8734C36.1453 42.1352 36.2923 42.4902 36.2923 42.8604C36.2923 43.2306 36.1453 43.5856 35.8835 43.8474C35.6217 44.1092 35.2667 44.2562 34.8965 44.2562H25.1257C24.7555 44.2562 24.4004 44.1092 24.1386 43.8474C23.8769 43.5856 23.7298 43.2306 23.7298 42.8604Z" fill="#387F1A"/>
</svg>
