<svg width="42" height="42" viewBox="0 0 42 42" fill="none" xmlns="http://www.w3.org/2000/svg">
<path d="M33.25 15.75C33.2508 13.6411 32.7071 11.5677 31.6716 9.73049C30.636 7.8933 29.1438 6.35457 27.3392 5.26324C25.5346 4.17191 23.4788 3.56494 21.3709 3.5011C19.2629 3.43725 17.1742 3.91869 15.3068 4.89881C13.4395 5.87893 11.8568 7.32453 10.712 9.09568C9.56721 10.8668 8.89904 12.9035 8.77218 15.0086C8.64533 17.1137 9.06409 19.2159 9.98792 21.1117C10.9118 23.0075 12.3094 24.6327 14.0455 25.83L8.75 35L12.698 35.1628L14.812 38.5L20.8775 27.993L21 28C21.0613 28.0035 21.0805 27.9947 21.1225 27.993L27.188 38.5L29.344 35.2345L33.25 35L27.9545 25.83C29.5883 24.7051 30.9241 23.1997 31.8466 21.4437C32.7691 19.6877 33.2508 17.7336 33.25 15.75ZM12.25 15.75C12.25 14.0194 12.7632 12.3277 13.7246 10.8888C14.6861 9.44983 16.0527 8.32832 17.6515 7.66605C19.2504 7.00379 21.0097 6.83051 22.707 7.16813C24.4044 7.50575 25.9635 8.3391 27.1872 9.56281C28.4109 10.7865 29.2443 12.3456 29.5819 14.043C29.9195 15.7403 29.7462 17.4996 29.0839 19.0985C28.4217 20.6973 27.3002 22.0639 25.8612 23.0254C24.4223 23.9868 22.7306 24.5 21 24.5C18.6794 24.5 16.4538 23.5781 14.8128 21.9372C13.1719 20.2962 12.25 18.0706 12.25 15.75Z" fill="#387F1A"/>
<path d="M21 21C23.8995 21 26.25 18.6495 26.25 15.75C26.25 12.8505 23.8995 10.5 21 10.5C18.1005 10.5 15.75 12.8505 15.75 15.75C15.75 18.6495 18.1005 21 21 21Z" fill="#387F1A"/>
</svg>
