<svg width="42" height="33" viewBox="0 0 42 33" fill="none" xmlns="http://www.w3.org/2000/svg">
<g clip-path="url(#clip0_330_15)">
<path d="M40.95 22.6875H39.9V15.7201C39.9 14.9016 39.5653 14.1152 38.9747 13.5352L32.4187 7.09629C31.8281 6.51621 31.0275 6.1875 30.1941 6.1875H27.3V3.09375C27.3 1.38574 25.8891 0 24.15 0H7.35C5.61094 0 4.2 1.38574 4.2 3.09375V6.1875H0.525C0.23625 6.1875 0 6.41953 0 6.70312V7.73438C0 8.01797 0.23625 8.25 0.525 8.25H18.375C18.6637 8.25 18.9 8.48203 18.9 8.76562V9.79688C18.9 10.0805 18.6637 10.3125 18.375 10.3125H2.625C2.33625 10.3125 2.1 10.5445 2.1 10.8281V11.8594C2.1 12.143 2.33625 12.375 2.625 12.375H16.275C16.5637 12.375 16.8 12.607 16.8 12.8906V13.9219C16.8 14.2055 16.5637 14.4375 16.275 14.4375H0.525C0.23625 14.4375 0 14.6695 0 14.9531V15.9844C0 16.268 0.23625 16.5 0.525 16.5H14.175C14.4637 16.5 14.7 16.732 14.7 17.0156V18.0469C14.7 18.3305 14.4637 18.5625 14.175 18.5625H4.2V26.8125C4.2 30.2285 7.02187 33 10.5 33C13.9781 33 16.8 30.2285 16.8 26.8125H25.2C25.2 30.2285 28.0219 33 31.5 33C34.9781 33 37.8 30.2285 37.8 26.8125H40.95C41.5275 26.8125 42 26.3484 42 25.7812V23.7188C42 23.1516 41.5275 22.6875 40.95 22.6875ZM10.5 29.9062C8.76094 29.9062 7.35 28.5205 7.35 26.8125C7.35 25.1045 8.76094 23.7188 10.5 23.7188C12.2391 23.7188 13.65 25.1045 13.65 26.8125C13.65 28.5205 12.2391 29.9062 10.5 29.9062ZM31.5 29.9062C29.7609 29.9062 28.35 28.5205 28.35 26.8125C28.35 25.1045 29.7609 23.7188 31.5 23.7188C33.2391 23.7188 34.65 25.1045 34.65 26.8125C34.65 28.5205 33.2391 29.9062 31.5 29.9062ZM36.75 16.5H27.3V9.28125H30.1941L36.75 15.7201V16.5Z" fill="#387F1A"/>
</g>
<defs>
<clipPath id="clip0_330_15">
<rect width="42" height="33" fill="white"/>
</clipPath>
</defs>
</svg>
