<svg width="37" height="37" viewBox="0 0 37 37" fill="none" xmlns="http://www.w3.org/2000/svg">
<g clip-path="url(#clip0_330_17)">
<path fill-rule="evenodd" clip-rule="evenodd" d="M15.0563 1.6511L13.4907 2.80041C13.2149 3.02045 12.9227 3.21914 12.6166 3.39472C12.4105 3.50429 12.1945 3.59411 11.9714 3.66297C11.7194 3.73928 11.4581 3.7786 10.9331 3.85953L9.01374 4.15322C7.49905 4.38447 6.74055 4.50241 6.14624 4.85622C5.61436 5.16841 5.17267 5.61241 4.85817 6.14428C4.50436 6.74553 4.38874 7.50403 4.15517 9.01178L3.86149 10.9312C3.78055 11.4561 3.74124 11.7197 3.66492 11.9718C3.59555 12.1953 3.50613 12.4096 3.39667 12.6147C3.2718 12.8459 3.11686 13.061 2.80236 13.4888L1.65305 15.0543C0.746549 16.2892 0.293299 16.9067 0.117549 17.575C-0.0339747 18.1722 -0.0339747 18.7977 0.117549 19.3949C0.290987 20.0702 0.746549 20.6899 1.65305 21.9155L2.80236 23.4811C3.11686 23.9089 3.27411 24.124 3.39667 24.3552C3.50459 24.5618 3.59401 24.7776 3.66492 25.0027C3.74124 25.2525 3.78055 25.5138 3.86149 26.0387L4.15517 27.9581C4.38642 29.4728 4.50436 30.229 4.85817 30.8256C5.17036 31.3575 5.61436 31.8015 6.14624 32.1137C6.74749 32.4675 7.50599 32.5831 9.01374 32.8167L10.9331 33.1103C11.4581 33.1913 11.7217 33.2329 11.9714 33.3092C12.195 33.3771 12.41 33.4665 12.6166 33.5775C12.8479 33.7 13.0629 33.855 13.4907 34.1718L15.0563 35.3211C16.2912 36.2276 16.9086 36.6808 17.5769 36.8566C18.1735 37.0115 18.8002 37.0115 19.3969 36.8566C20.0721 36.6808 20.6919 36.2276 21.9175 35.3211L23.483 34.1718C23.9109 33.8573 24.1259 33.7 24.3572 33.5775C24.5638 33.4665 24.7788 33.3771 25.0024 33.3092C25.2544 33.2329 25.5157 33.1936 26.0407 33.1103L27.96 32.8167C29.4747 32.5854 30.2309 32.4698 30.8275 32.1137C31.3594 31.8015 31.8034 31.3575 32.1156 30.8256C32.4694 30.2243 32.585 29.4658 32.8186 27.9581L33.1123 26.0387C33.1932 25.5138 33.2325 25.2525 33.3089 25.0004C33.3782 24.7769 33.4677 24.5618 33.5771 24.3552C33.702 24.124 33.8569 23.9089 34.1714 23.4811L35.3207 21.9155C36.2272 20.6807 36.6805 20.0655 36.8562 19.3949C37.0078 18.7977 37.0078 18.1722 36.8562 17.575C36.6828 16.8997 36.2272 16.28 35.3207 15.0543L34.1714 13.4888C33.9514 13.2129 33.7527 12.9207 33.5771 12.6147C33.4675 12.4085 33.3777 12.1925 33.3089 11.9695C33.217 11.6289 33.1513 11.2818 33.1123 10.9312L32.8186 9.01178C32.5874 7.4971 32.4694 6.7386 32.1156 6.14428C31.8003 5.6143 31.3575 5.17152 30.8275 4.85622C30.2263 4.50241 29.4678 4.38678 27.96 4.15322L26.0407 3.85953C25.6901 3.82051 25.343 3.7548 25.0024 3.66297C24.7788 3.5955 24.5627 3.50563 24.3572 3.39472C24.0511 3.21914 23.7589 3.02045 23.483 2.80041L21.9175 1.6511C20.6826 0.744596 20.0652 0.291346 19.3969 0.115596C18.7997 -0.0359279 18.1741 -0.0359279 17.5769 0.115596C16.9017 0.291346 16.2819 0.744596 15.0563 1.6511ZM27.3819 14.1617C27.5158 13.9985 27.6155 13.81 27.6753 13.6076C27.735 13.4051 27.7536 13.1927 27.7299 12.983C27.7062 12.7732 27.6407 12.5703 27.5372 12.3863C27.4337 12.2023 27.2944 12.0409 27.1275 11.9117C26.7881 11.6461 26.3583 11.5235 25.9298 11.5702C25.5013 11.6168 25.1079 11.829 24.8335 12.1614L17.1792 21.5502L13.0861 18.4052C12.7517 18.133 12.3243 18.0023 11.8949 18.0407C11.4655 18.0792 11.0681 18.2838 10.7874 18.611C10.6503 18.7714 10.5467 18.9578 10.4828 19.1589C10.4189 19.3601 10.396 19.5721 10.4154 19.7823C10.4348 19.9925 10.4961 20.1966 10.5958 20.3827C10.6954 20.5688 10.8314 20.733 10.9956 20.8657L16.3605 25.0513C16.6993 25.3269 17.1334 25.4572 17.5679 25.4139C18.0025 25.3706 18.4023 25.1571 18.68 24.82L27.375 14.1363L27.3819 14.1617Z" fill="#387F1A"/>
</g>
<defs>
<clipPath id="clip0_330_17">
<rect width="37" height="37" fill="white"/>
</clipPath>
</defs>
</svg>
