<svg width="67" height="67" viewBox="0 0 67 67" fill="none" xmlns="http://www.w3.org/2000/svg">
<path fill-rule="evenodd" clip-rule="evenodd" d="M33.4981 5.58325C33.8683 5.58325 34.2233 5.73031 34.4851 5.99208C34.7469 6.25385 34.8939 6.60889 34.8939 6.97909V11.8017C34.8939 12.2763 34.813 12.7495 34.6524 13.1961C34.4919 13.6428 34.2518 14.0615 33.9392 14.4217C33.6254 14.7849 33.24 15.0795 32.8071 15.2871C32.3699 15.4989 31.8902 15.6086 31.4043 15.6081H28.2497C26.5315 15.5732 24.8258 16.2698 23.469 17.6265C22.1095 18.986 21.2036 20.9095 20.9705 23.0423C20.8728 24.2106 20.9872 25.3873 21.3055 26.4956C21.6089 27.5746 22.119 28.5843 22.8074 29.4688C23.4392 30.2845 24.2407 30.9532 25.1566 31.4285C25.472 31.5904 26.1783 31.7733 27.0884 31.9101C27.9538 32.0413 28.8123 32.1041 29.312 32.1041C29.6822 32.1041 30.0372 32.2511 30.299 32.5129C30.5607 32.7747 30.7078 33.1297 30.7078 33.4999C30.7078 33.8701 30.5607 34.2252 30.299 34.4869C30.0372 34.7487 29.6822 34.8958 29.312 34.8958C28.6434 34.8958 27.6426 34.8176 26.6711 34.671C25.7456 34.5314 24.6415 34.2997 23.8878 33.9159C22.6124 33.2564 21.4956 32.3277 20.6145 31.194C19.7024 30.0256 19.0259 28.6911 18.6227 27.2647C18.2075 25.8118 18.0608 24.2953 18.19 22.7897L18.1942 22.7604C18.4873 20.0385 19.6458 17.5023 21.4939 15.6528C23.3448 13.8033 25.7624 12.7704 28.2916 12.8165H31.4043C31.4667 12.8174 31.5337 12.8016 31.6053 12.769C31.6923 12.7258 31.7693 12.665 31.8315 12.5903C31.9156 12.4896 31.9812 12.3747 32.0255 12.2511C32.0755 12.1065 32.1015 11.9547 32.1022 11.8017V6.97909C32.1022 6.60889 32.2493 6.25385 32.5111 5.99208C32.7728 5.73031 33.1279 5.58325 33.4981 5.58325Z" fill="white"/>
<path fill-rule="evenodd" clip-rule="evenodd" d="M19.6992 33.084C20.9455 32.443 22.3261 32.1071 23.7276 32.1041C24.0978 32.1041 24.4528 32.2511 24.7146 32.5129C24.9763 32.7747 25.1234 33.1297 25.1234 33.4999C25.1234 33.8701 24.9763 34.2252 24.7146 34.4869C24.4528 34.7487 24.0978 34.8958 23.7276 34.8958C22.7854 34.8958 21.846 35.1233 20.9694 35.5713C20.0531 36.0464 19.251 36.7152 18.6188 37.5311C17.9304 38.4155 17.4203 39.4253 17.1169 40.5042C16.7973 41.6251 16.6838 42.7947 16.7819 43.9561C17.015 46.0903 17.9209 48.0138 19.2804 49.3719C19.8513 49.9442 20.8703 50.476 22.1056 50.8585C23.32 51.234 24.5665 51.4099 25.4556 51.3917H31.4047C31.8932 51.3917 32.3706 51.5034 32.8075 51.7128C33.243 51.9193 33.6254 52.218 33.9381 52.5782C34.2522 52.9397 34.4922 53.357 34.6528 53.8037C34.8133 54.2504 34.8942 54.725 34.8942 55.1995V60.0208C34.8942 60.391 34.7472 60.746 34.4854 61.0078C34.2236 61.2695 33.8686 61.4166 33.4984 61.4166C33.1282 61.4166 32.7732 61.2695 32.5114 61.0078C32.2496 60.746 32.1026 60.391 32.1026 60.0208V55.1981C32.1018 55.0451 32.0759 54.8933 32.0258 54.7487C31.9811 54.625 31.915 54.5102 31.8304 54.4095C31.7687 54.335 31.6921 54.2742 31.6057 54.2308C31.5437 54.1985 31.4746 54.1822 31.4047 54.1834H25.4975C24.2636 54.2057 22.724 53.9712 21.2821 53.5259C19.8541 53.0849 18.3397 52.3814 17.3053 51.347C15.4573 49.4976 14.2973 46.9613 14.0056 44.2395L14.0028 44.2101C13.8732 42.7047 14.0194 41.1881 14.4341 39.7351C14.8372 38.3082 15.5137 36.9733 16.426 35.8044C17.3071 34.6713 18.424 33.743 19.6992 33.084ZM43.2734 5.58325C43.6436 5.58325 43.9987 5.73031 44.2604 5.99208C44.5222 6.25385 44.6693 6.60889 44.6693 6.97909V14.2123C44.6693 15.636 44.4264 17.0514 43.949 18.3761C43.4853 19.6854 42.7814 20.8968 41.8734 21.948C41.6287 22.229 41.3542 22.5142 41.0499 22.8036C43.3669 22.9376 45.8683 23.3438 47.9872 24.4396C49.4263 25.1835 50.7132 26.2583 51.6303 27.7868C52.5459 29.3124 53.0401 31.2024 53.0401 33.4999C53.0401 35.7891 52.5613 37.6763 51.6694 39.2005C50.776 40.7289 49.5198 41.8065 48.103 42.5547C45.9576 43.6895 43.4088 44.0873 41.0624 44.2088C41.3472 44.4805 41.6161 44.7624 41.8692 45.0546C43.6754 47.1344 44.6637 49.9191 44.6637 52.7875V60.0208C44.6637 60.391 44.5166 60.746 44.2548 61.0078C43.9931 61.2695 43.638 61.4166 43.2678 61.4166C42.8976 61.4166 42.5426 61.2695 42.2808 61.0078C42.0191 60.746 41.872 60.391 41.872 60.0208V52.7875C41.872 50.543 41.0959 48.4214 39.7615 46.886C38.3517 45.2598 36.5734 44.2576 34.8942 44.2562C34.524 44.2562 34.169 44.1091 33.9072 43.8474C33.6455 43.5856 33.4984 43.2306 33.4984 42.8604C33.4984 42.4902 33.6455 42.1351 33.9072 41.8734C34.169 41.6116 34.524 41.4645 34.8942 41.4645H39.0775C41.8385 41.4645 44.679 41.2077 46.7979 40.0869C47.828 39.5425 48.6683 38.8027 49.2602 37.7907C49.8534 36.7745 50.2484 35.3969 50.2484 33.4999C50.2484 31.61 49.8436 30.2365 49.2364 29.2217C48.6292 28.2111 47.7652 27.4671 46.7044 26.9186C44.5227 25.7907 41.6138 25.5367 38.8235 25.5367H34.6402C34.27 25.5367 33.915 25.3896 33.6532 25.1279C33.3914 24.8661 33.2444 24.5111 33.2444 24.1409C33.2444 23.7707 33.3914 23.4156 33.6532 23.1539C33.915 22.8921 34.27 22.745 34.6402 22.745H34.6444C35.5457 22.7429 36.435 22.5377 37.2462 22.1448C38.0404 21.7679 39.072 20.9165 39.7657 20.1167C40.4451 19.3245 40.9732 18.4142 41.3234 17.4311C41.6928 16.3982 41.8803 15.3092 41.8776 14.2123V6.97909C41.8776 6.60889 42.0247 6.25385 42.2864 5.99208C42.5482 5.73031 42.9032 5.58325 43.2734 5.58325Z" fill="white"/>
<path fill-rule="evenodd" clip-rule="evenodd" d="M22.332 33.4999C22.332 33.1297 22.4791 32.7747 22.7409 32.5129C23.0026 32.2512 23.3577 32.1041 23.7279 32.1041H41.8737C42.2439 32.1041 42.5989 32.2512 42.8607 32.5129C43.1225 32.7747 43.2695 33.1297 43.2695 33.4999C43.2695 33.8701 43.1225 34.2252 42.8607 34.4869C42.5989 34.7487 42.2439 34.8958 41.8737 34.8958H23.7279C23.3577 34.8958 23.0026 34.7487 22.7409 34.4869C22.4791 34.2252 22.332 33.8701 22.332 33.4999ZM30.707 24.1395C30.707 23.7693 30.8541 23.4143 31.1159 23.1525C31.3776 22.8907 31.7327 22.7437 32.1029 22.7437H34.8945C35.2647 22.7437 35.6198 22.8907 35.8815 23.1525C36.1433 23.4143 36.2904 23.7693 36.2904 24.1395C36.2904 24.5097 36.1433 24.8647 35.8815 25.1265C35.6198 25.3883 35.2647 25.5353 34.8945 25.5353H32.1029C31.7327 25.5353 31.3776 25.3883 31.1159 25.1265C30.8541 24.8647 30.707 24.5097 30.707 24.1395ZM23.7279 42.8604C23.7279 42.4902 23.8749 42.1352 24.1367 41.8734C24.3985 41.6116 24.7535 41.4646 25.1237 41.4646H34.8945C35.2647 41.4646 35.6198 41.6116 35.8815 41.8734C36.1433 42.1352 36.2904 42.4902 36.2904 42.8604C36.2904 43.2306 36.1433 43.5856 35.8815 43.8474C35.6198 44.1092 35.2647 44.2562 34.8945 44.2562H25.1237C24.7535 44.2562 24.3985 44.1092 24.1367 43.8474C23.8749 43.5856 23.7279 43.2306 23.7279 42.8604Z" fill="white"/>
</svg>
