<svg width="81" height="81" viewBox="0 0 81 81" fill="none" xmlns="http://www.w3.org/2000/svg">
<path d="M26.1529 61.5972C22.2176 57.6619 20.25 52.8796 20.25 47.2501C20.25 42.6128 21.6484 38.4796 24.4451 34.8503C27.2419 31.2211 30.8903 28.8271 35.3903 27.6683C34.2653 27.4298 33.1582 27.0653 32.0692 26.5748C30.978 26.0843 30.033 25.4386 29.2342 24.6376C27.7222 23.1278 26.7435 21.3424 26.298 19.2814C25.848 17.2182 25.6568 15.1246 25.7243 13.0006C27.7605 12.9353 29.7765 13.1153 31.7722 13.5406C33.768 13.9658 35.5219 14.8917 37.0339 16.3182C38.3276 17.4814 39.2479 18.8674 39.7946 20.4762C40.3414 22.0872 40.6789 23.7713 40.8071 25.5286C41.4934 23.8703 42.3247 22.2998 43.3013 20.8171C44.2755 19.3366 45.4095 17.9494 46.7033 16.6557C47.0183 16.3407 47.4165 16.1832 47.898 16.1832C48.3795 16.1832 48.7777 16.3407 49.0927 16.6557C49.4077 16.9707 49.5653 17.3689 49.5653 17.8504C49.5653 18.3319 49.4077 18.7291 49.0927 19.0418C47.9002 20.2366 46.8461 21.5247 45.9304 22.9062C45.0191 24.2899 44.2733 25.7603 43.6928 27.3173C48.6427 28.0711 52.7231 30.3312 55.9339 34.0977C59.1446 37.8642 60.75 42.2483 60.75 47.2501C60.75 52.8796 58.7824 57.6619 54.8471 61.5972C50.9119 65.5324 46.1295 67.5001 40.5 67.5001C34.8705 67.5001 30.0881 65.5324 26.1529 61.5972ZM52.4408 59.1908C55.7303 55.8991 57.375 51.9188 57.375 47.2501C57.375 42.5813 55.7291 38.6022 52.4374 35.3127C49.1456 32.0232 45.1665 30.3773 40.5 30.3751C35.8335 30.3728 31.8544 32.0187 28.5626 35.3127C25.2709 38.6067 23.625 42.5858 23.625 47.2501C23.625 51.9143 25.2709 55.8946 28.5626 59.1908C31.8544 62.4871 35.8335 64.1318 40.5 64.1251C45.1665 64.1183 49.1467 62.4758 52.4408 59.1908Z" fill="white"/>
</svg>
